<?xml version="1.0" standalone="no"?>
<!DOCTYPE svg PUBLIC "-//W3C//DTD SVG 20010904//EN"
 "http://www.w3.org/TR/2001/REC-SVG-20010904/DTD/svg10.dtd">
<svg version="1.0" xmlns="http://www.w3.org/2000/svg"
 width="170.000000pt" height="170.000000pt" viewBox="0 0 170.000000 170.000000"
 preserveAspectRatio="xMidYMid meet">

<g transform="translate(0.000000,170.000000) scale(0.100000,-0.100000)"
fill="#000000" stroke="none">
<path d="M625 1551 c-11 -68 -60 -203 -100 -279 -19 -38 -66 -106 -103 -151
-96 -118 -102 -129 -102 -187 0 -86 -18 -154 -71 -266 -32 -68 -48 -114 -44
-127 8 -26 93 -61 168 -68 67 -6 161 12 137 27 -10 6 1 23 41 67 107 116 105
113 91 122 -10 6 14 39 88 122 56 63 104 121 107 129 3 8 15 25 25 36 16 18
25 20 63 13 73 -14 107 -45 129 -116 11 -33 -12 -29 -52 10 l-33 32 10 -28 c6
-16 11 -50 11 -78 0 -47 -3 -52 -65 -116 -57 -60 -66 -66 -75 -51 -19 31 -49
41 -81 28 -33 -14 -43 -38 -34 -80 8 -37 -14 -76 -79 -139 -45 -44 -46 -44
-66 -26 -20 18 -20 18 -20 -5 0 -16 -33 -56 -105 -130 -58 -58 -105 -109 -105
-113 0 -4 71 -6 157 -5 l157 3 51 205 c38 152 49 210 41 222 -11 18 7 48 30
48 17 0 33 -28 27 -50 -3 -10 44 -102 107 -213 l111 -196 38 14 c54 19 121 53
159 82 37 28 49 25 32 -7 -22 -41 -2 -31 44 22 54 60 120 189 137 263 6 28 14
63 18 80 l7 29 17 -34 17 -35 0 60 c0 112 -63 296 -140 413 -23 34 -18 38 27
21 l28 -10 -25 26 c-54 58 -171 128 -281 166 -55 20 -91 24 -262 28 l-197 6
-4 115 c-2 63 -8 126 -13 140 -10 24 -11 23 -18 -19z m-247 -649 l-16 -47 -1
36 c-1 20 2 52 6 70 6 32 7 32 16 11 8 -16 6 -36 -5 -70z m-129 -326 c-9 -8
-10 -7 -5 7 3 10 7 24 7 30 1 7 3 4 6 -7 3 -10 -1 -23 -8 -30z"/>
<path d="M786 489 c-42 -150 -86 -308 -86 -313 0 -3 33 -6 73 -6 111 0 237 12
237 22 0 5 -47 86 -104 180 l-105 170 -15 -53z"/>
</g>
</svg>
